<?xml version="1.0" encoding="utf-8" standalone="no"?>
<!DOCTYPE svg PUBLIC "-//W3C//DTD SVG 1.1//EN"
  "http://www.w3.org/Graphics/SVG/1.1/DTD/svg11.dtd">
<svg xmlns:xlink="http://www.w3.org/1999/xlink" width="1008pt" height="288pt" viewBox="0 0 1008 288" xmlns="http://www.w3.org/2000/svg" version="1.1">
 <metadata>
  <rdf:RDF xmlns:dc="http://purl.org/dc/elements/1.1/" xmlns:cc="http://creativecommons.org/ns#" xmlns:rdf="http://www.w3.org/1999/02/22-rdf-syntax-ns#">
   <cc:Work>
    <dc:type rdf:resource="http://purl.org/dc/dcmitype/StillImage"/>
    <dc:date>2025-05-05T18:37:50.958800</dc:date>
    <dc:format>image/svg+xml</dc:format>
    <dc:creator>
     <cc:Agent>
      <dc:title>Matplotlib v3.9.0, https://matplotlib.org/</dc:title>
     </cc:Agent>
    </dc:creator>
   </cc:Work>
  </rdf:RDF>
 </metadata>
 <defs>
  <style type="text/css">*{stroke-linejoin: round; stroke-linecap: butt}</style>
 </defs>
 <g id="figure_1">
  <g id="patch_1">
   <path d="M 0 288 
L 1008 288 
L 1008 0 
L 0 0 
z
" style="fill: #ffffff"/>
  </g>
  <g id="axes_1">
   <g id="patch_2">
    <path d="M 126 256.32 
L 295.826087 256.32 
L 295.826087 34.56 
L 126 34.56 
z
" style="fill: #ffffff"/>
   </g>
   <g id="patch_3">
    <path d="M 210.913043 256.32 
L 214.309565 256.32 
L 214.309565 256.32 
L 210.913043 256.32 
z
" clip-path="url(#p97febd3cfb)" style="fill: #1f77b4"/>
   </g>
   <g id="patch_4">
    <path d="M 214.309565 256.32 
L 217.706087 256.32 
L 217.706087 256.32 
L 214.309565 256.32 
z
" clip-path="url(#p97febd3cfb)" style="fill: #1f77b4"/>
   </g>
   <g id="patch_5">
    <path d="M 217.706087 256.32 
L 221.102609 256.32 
L 221.102609 256.32 
L 217.706087 256.32 
z
" clip-path="url(#p97febd3cfb)" style="fill: #1f77b4"/>
   </g>
   <g id="patch_6">
    <path d="M 221.102609 256.32 
L 224.49913 256.32 
L 224.49913 256.32 
L 221.102609 256.32 
z
" clip-path="url(#p97febd3cfb)" style="fill: #1f77b4"/>
   </g>
   <g id="patch_7">
    <path d="M 224.49913 256.32 
L 227.895652 256.32 
L 227.895652 256.32 
L 224.49913 256.32 
z
" clip-path="url(#p97febd3cfb)" style="fill: #1f77b4"/>
   </g>
   <g id="patch_8">
    <path d="M 227.895652 256.32 
L 231.292174 256.32 
L 231.292174 256.32 
L 227.895652 256.32 
z
" clip-path="url(#p97febd3cfb)" style="fill: #1f77b4"/>
   </g>
   <g id="patch_9">
    <path d="M 231.292174 256.32 
L 234.688696 256.32 
L 234.688696 256.32 
L 231.292174 256.32 
z
" clip-path="url(#p97febd3cfb)" style="fill: #1f77b4"/>
   </g>
   <g id="patch_10">
    <path d="M 234.688696 256.32 
L 238.085217 256.32 
L 238.085217 250.776 
L 234.688696 250.776 
z
" clip-path="url(#p97febd3cfb)" style="fill: #1f77b4"/>
   </g>
   <g id="patch_11">
    <path d="M 238.085217 256.32 
L 241.481739 256.32 
L 241.481739 250.776 
L 238.085217 250.776 
z
" clip-path="url(#p97febd3cfb)" style="fill: #1f77b4"/>
   </g>
   <g id="patch_12">
    <path d="M 241.481739 256.32 
L 244.878261 256.32 
L 244.878261 250.776 
L 241.481739 250.776 
z
" clip-path="url(#p97febd3cfb)" style="fill: #1f77b4"/>
   </g>
   <g id="patch_13">
    <path d="M 244.878261 256.32 
L 248.274783 256.32 
L 248.274783 250.776 
L 244.878261 250.776 
z
" clip-path="url(#p97febd3cfb)" style="fill: #1f77b4"/>
   </g>
   <g id="patch_14">
    <path d="M 248.274783 256.32 
L 251.671304 256.32 
L 251.671304 250.776 
L 248.274783 250.776 
z
" clip-path="url(#p97febd3cfb)" style="fill: #1f77b4"/>
   </g>
   <g id="patch_15">
    <path d="M 251.671304 256.32 
L 255.067826 256.32 
L 255.067826 245.232 
L 251.671304 245.232 
z
" clip-path="url(#p97febd3cfb)" style="fill: #1f77b4"/>
   </g>
   <g id="patch_16">
    <path d="M 255.067826 256.32 
L 258.464348 256.32 
L 258.464348 250.776 
L 255.067826 250.776 
z
" clip-path="url(#p97febd3cfb)" style="fill: #1f77b4"/>
   </g>
   <g id="patch_17">
    <path d="M 258.464348 256.32 
L 261.86087 256.32 
L 261.86087 245.232 
L 258.464348 245.232 
z
" clip-path="url(#p97febd3cfb)" style="fill: #1f77b4"/>
   </g>
   <g id="patch_18">
    <path d="M 261.86087 256.32 
L 265.257391 256.32 
L 265.257391 239.688 
L 261.86087 239.688 
z
" clip-path="url(#p97febd3cfb)" style="fill: #1f77b4"/>
   </g>
   <g id="patch_19">
    <path d="M 265.257391 256.32 
L 268.653913 256.32 
L 268.653913 239.688 
L 265.257391 239.688 
z
" clip-path="url(#p97febd3cfb)" style="fill: #1f77b4"/>
   </g>
   <g id="patch_20">
    <path d="M 268.653913 256.32 
L 272.050435 256.32 
L 272.050435 234.144 
L 268.653913 234.144 
z
" clip-path="url(#p97febd3cfb)" style="fill: #1f77b4"/>
   </g>
   <g id="patch_21">
    <path d="M 272.050435 256.32 
L 275.446957 256.32 
L 275.446957 228.6 
L 272.050435 228.6 
z
" clip-path="url(#p97febd3cfb)" style="fill: #1f77b4"/>
   </g>
   <g id="patch_22">
    <path d="M 275.446957 256.32 
L 278.843478 256.32 
L 278.843478 217.512 
L 275.446957 217.512 
z
" clip-path="url(#p97febd3cfb)" style="fill: #1f77b4"/>
   </g>
   <g id="patch_23">
    <path d="M 278.843478 256.32 
L 282.24 256.32 
L 282.24 211.968 
L 278.843478 211.968 
z
" clip-path="url(#p97febd3cfb)" style="fill: #1f77b4"/>
   </g>
   <g id="patch_24">
    <path d="M 282.24 256.32 
L 285.636522 256.32 
L 285.636522 256.32 
L 282.24 256.32 
z
" clip-path="url(#p97febd3cfb)" style="fill: #1f77b4"/>
   </g>
   <g id="patch_25">
    <path d="M 285.636522 256.32 
L 289.033043 256.32 
L 289.033043 256.32 
L 285.636522 256.32 
z
" clip-path="url(#p97febd3cfb)" style="fill: #1f77b4"/>
   </g>
   <g id="patch_26">
    <path d="M 289.033043 256.32 
L 292.429565 256.32 
L 292.429565 256.32 
L 289.033043 256.32 
z
" clip-path="url(#p97febd3cfb)" style="fill: #1f77b4"/>
   </g>
   <g id="patch_27">
    <path d="M 292.429565 256.32 
L 295.826087 256.32 
L 295.826087 256.32 
L 292.429565 256.32 
z
" clip-path="url(#p97febd3cfb)" style="fill: #1f77b4"/>
   </g>
   <g id="matplotlib.axis_1">
    <g id="xtick_1">
     <g id="line2d_1">
      <defs>
       <path id="m1557c0cba0" d="M 0 0 
L 0 3.5 
" style="stroke: #000000; stroke-width: 0.8"/>
      </defs>
      <g>
       <use xlink:href="#m1557c0cba0" x="126" y="256.32" style="stroke: #000000; stroke-width: 0.8"/>
      </g>
     </g>
     <g id="text_1">
      <!-- 0 -->
      <g transform="translate(122.81875 270.918437) scale(0.1 -0.1)">
       <defs>
        <path id="DejaVuSans-30" d="M 2034 4250 
Q 1547 4250 1301 3770 
Q 1056 3291 1056 2328 
Q 1056 1369 1301 889 
Q 1547 409 2034 409 
Q 2525 409 2770 889 
Q 3016 1369 3016 2328 
Q 3016 3291 2770 3770 
Q 2525 4250 2034 4250 
z
M 2034 4750 
Q 2819 4750 3233 4129 
Q 3647 3509 3647 2328 
Q 3647 1150 3233 529 
Q 2819 -91 2034 -91 
Q 1250 -91 836 529 
Q 422 1150 422 2328 
Q 422 3509 836 4129 
Q 1250 4750 2034 4750 
z
" transform="scale(0.015625)"/>
       </defs>
       <use xlink:href="#DejaVuSans-30"/>
      </g>
     </g>
    </g>
    <g id="xtick_2">
     <g id="line2d_2">
      <g>
       <use xlink:href="#m1557c0cba0" x="159.965217" y="256.32" style="stroke: #000000; stroke-width: 0.8"/>
      </g>
     </g>
     <g id="text_2">
      <!-- 20 -->
      <g transform="translate(153.602717 270.918437) scale(0.1 -0.1)">
       <defs>
        <path id="DejaVuSans-32" d="M 1228 531 
L 3431 531 
L 3431 0 
L 469 0 
L 469 531 
Q 828 903 1448 1529 
Q 2069 2156 2228 2338 
Q 2531 2678 2651 2914 
Q 2772 3150 2772 3378 
Q 2772 3750 2511 3984 
Q 2250 4219 1831 4219 
Q 1534 4219 1204 4116 
Q 875 4013 500 3803 
L 500 4441 
Q 881 4594 1212 4672 
Q 1544 4750 1819 4750 
Q 2544 4750 2975 4387 
Q 3406 4025 3406 3419 
Q 3406 3131 3298 2873 
Q 3191 2616 2906 2266 
Q 2828 2175 2409 1742 
Q 1991 1309 1228 531 
z
" transform="scale(0.015625)"/>
       </defs>
       <use xlink:href="#DejaVuSans-32"/>
       <use xlink:href="#DejaVuSans-30" x="63.623047"/>
      </g>
     </g>
    </g>
    <g id="xtick_3">
     <g id="line2d_3">
      <g>
       <use xlink:href="#m1557c0cba0" x="193.930435" y="256.32" style="stroke: #000000; stroke-width: 0.8"/>
      </g>
     </g>
     <g id="text_3">
      <!-- 40 -->
      <g transform="translate(187.567935 270.918437) scale(0.1 -0.1)">
       <defs>
        <path id="DejaVuSans-34" d="M 2419 4116 
L 825 1625 
L 2419 1625 
L 2419 4116 
z
M 2253 4666 
L 3047 4666 
L 3047 1625 
L 3713 1625 
L 3713 1100 
L 3047 1100 
L 3047 0 
L 2419 0 
L 2419 1100 
L 313 1100 
L 313 1709 
L 2253 4666 
z
" transform="scale(0.015625)"/>
       </defs>
       <use xlink:href="#DejaVuSans-34"/>
       <use xlink:href="#DejaVuSans-30" x="63.623047"/>
      </g>
     </g>
    </g>
    <g id="xtick_4">
     <g id="line2d_4">
      <g>
       <use xlink:href="#m1557c0cba0" x="227.895652" y="256.32" style="stroke: #000000; stroke-width: 0.8"/>
      </g>
     </g>
     <g id="text_4">
      <!-- 60 -->
      <g transform="translate(221.533152 270.918437) scale(0.1 -0.1)">
       <defs>
        <path id="DejaVuSans-36" d="M 2113 2584 
Q 1688 2584 1439 2293 
Q 1191 2003 1191 1497 
Q 1191 994 1439 701 
Q 1688 409 2113 409 
Q 2538 409 2786 701 
Q 3034 994 3034 1497 
Q 3034 2003 2786 2293 
Q 2538 2584 2113 2584 
z
M 3366 4563 
L 3366 3988 
Q 3128 4100 2886 4159 
Q 2644 4219 2406 4219 
Q 1781 4219 1451 3797 
Q 1122 3375 1075 2522 
Q 1259 2794 1537 2939 
Q 1816 3084 2150 3084 
Q 2853 3084 3261 2657 
Q 3669 2231 3669 1497 
Q 3669 778 3244 343 
Q 2819 -91 2113 -91 
Q 1303 -91 875 529 
Q 447 1150 447 2328 
Q 447 3434 972 4092 
Q 1497 4750 2381 4750 
Q 2619 4750 2861 4703 
Q 3103 4656 3366 4563 
z
" transform="scale(0.015625)"/>
       </defs>
       <use xlink:href="#DejaVuSans-36"/>
       <use xlink:href="#DejaVuSans-30" x="63.623047"/>
      </g>
     </g>
    </g>
    <g id="xtick_5">
     <g id="line2d_5">
      <g>
       <use xlink:href="#m1557c0cba0" x="261.86087" y="256.32" style="stroke: #000000; stroke-width: 0.8"/>
      </g>
     </g>
     <g id="text_5">
      <!-- 80 -->
      <g transform="translate(255.49837 270.918437) scale(0.1 -0.1)">
       <defs>
        <path id="DejaVuSans-38" d="M 2034 2216 
Q 1584 2216 1326 1975 
Q 1069 1734 1069 1313 
Q 1069 891 1326 650 
Q 1584 409 2034 409 
Q 2484 409 2743 651 
Q 3003 894 3003 1313 
Q 3003 1734 2745 1975 
Q 2488 2216 2034 2216 
z
M 1403 2484 
Q 997 2584 770 2862 
Q 544 3141 544 3541 
Q 544 4100 942 4425 
Q 1341 4750 2034 4750 
Q 2731 4750 3128 4425 
Q 3525 4100 3525 3541 
Q 3525 3141 3298 2862 
Q 3072 2584 2669 2484 
Q 3125 2378 3379 2068 
Q 3634 1759 3634 1313 
Q 3634 634 3220 271 
Q 2806 -91 2034 -91 
Q 1263 -91 848 271 
Q 434 634 434 1313 
Q 434 1759 690 2068 
Q 947 2378 1403 2484 
z
M 1172 3481 
Q 1172 3119 1398 2916 
Q 1625 2713 2034 2713 
Q 2441 2713 2670 2916 
Q 2900 3119 2900 3481 
Q 2900 3844 2670 4047 
Q 2441 4250 2034 4250 
Q 1625 4250 1398 4047 
Q 1172 3844 1172 3481 
z
" transform="scale(0.015625)"/>
       </defs>
       <use xlink:href="#DejaVuSans-38"/>
       <use xlink:href="#DejaVuSans-30" x="63.623047"/>
      </g>
     </g>
    </g>
    <g id="xtick_6">
     <g id="line2d_6">
      <g>
       <use xlink:href="#m1557c0cba0" x="295.826087" y="256.32" style="stroke: #000000; stroke-width: 0.8"/>
      </g>
     </g>
     <g id="text_6">
      <!-- 100 -->
      <g transform="translate(286.282337 270.918437) scale(0.1 -0.1)">
       <defs>
        <path id="DejaVuSans-31" d="M 794 531 
L 1825 531 
L 1825 4091 
L 703 3866 
L 703 4441 
L 1819 4666 
L 2450 4666 
L 2450 531 
L 3481 531 
L 3481 0 
L 794 0 
L 794 531 
z
" transform="scale(0.015625)"/>
       </defs>
       <use xlink:href="#DejaVuSans-31"/>
       <use xlink:href="#DejaVuSans-30" x="63.623047"/>
       <use xlink:href="#DejaVuSans-30" x="127.246094"/>
      </g>
     </g>
    </g>
    <g id="text_7">
     <!-- Well Efficiency (%) -->
     <g transform="translate(164.41695 284.596563) scale(0.1 -0.1)">
      <defs>
       <path id="DejaVuSans-57" d="M 213 4666 
L 850 4666 
L 1831 722 
L 2809 4666 
L 3519 4666 
L 4500 722 
L 5478 4666 
L 6119 4666 
L 4947 0 
L 4153 0 
L 3169 4050 
L 2175 0 
L 1381 0 
L 213 4666 
z
" transform="scale(0.015625)"/>
       <path id="DejaVuSans-65" d="M 3597 1894 
L 3597 1613 
L 953 1613 
Q 991 1019 1311 708 
Q 1631 397 2203 397 
Q 2534 397 2845 478 
Q 3156 559 3463 722 
L 3463 178 
Q 3153 47 2828 -22 
Q 2503 -91 2169 -91 
Q 1331 -91 842 396 
Q 353 884 353 1716 
Q 353 2575 817 3079 
Q 1281 3584 2069 3584 
Q 2775 3584 3186 3129 
Q 3597 2675 3597 1894 
z
M 3022 2063 
Q 3016 2534 2758 2815 
Q 2500 3097 2075 3097 
Q 1594 3097 1305 2825 
Q 1016 2553 972 2059 
L 3022 2063 
z
" transform="scale(0.015625)"/>
       <path id="DejaVuSans-6c" d="M 603 4863 
L 1178 4863 
L 1178 0 
L 603 0 
L 603 4863 
z
" transform="scale(0.015625)"/>
       <path id="DejaVuSans-20" transform="scale(0.015625)"/>
       <path id="DejaVuSans-45" d="M 628 4666 
L 3578 4666 
L 3578 4134 
L 1259 4134 
L 1259 2753 
L 3481 2753 
L 3481 2222 
L 1259 2222 
L 1259 531 
L 3634 531 
L 3634 0 
L 628 0 
L 628 4666 
z
" transform="scale(0.015625)"/>
       <path id="DejaVuSans-66" d="M 2375 4863 
L 2375 4384 
L 1825 4384 
Q 1516 4384 1395 4259 
Q 1275 4134 1275 3809 
L 1275 3500 
L 2222 3500 
L 2222 3053 
L 1275 3053 
L 1275 0 
L 697 0 
L 697 3053 
L 147 3053 
L 147 3500 
L 697 3500 
L 697 3744 
Q 697 4328 969 4595 
Q 1241 4863 1831 4863 
L 2375 4863 
z
" transform="scale(0.015625)"/>
       <path id="DejaVuSans-69" d="M 603 3500 
L 1178 3500 
L 1178 0 
L 603 0 
L 603 3500 
z
M 603 4863 
L 1178 4863 
L 1178 4134 
L 603 4134 
L 603 4863 
z
" transform="scale(0.015625)"/>
       <path id="DejaVuSans-63" d="M 3122 3366 
L 3122 2828 
Q 2878 2963 2633 3030 
Q 2388 3097 2138 3097 
Q 1578 3097 1268 2742 
Q 959 2388 959 1747 
Q 959 1106 1268 751 
Q 1578 397 2138 397 
Q 2388 397 2633 464 
Q 2878 531 3122 666 
L 3122 134 
Q 2881 22 2623 -34 
Q 2366 -91 2075 -91 
Q 1284 -91 818 406 
Q 353 903 353 1747 
Q 353 2603 823 3093 
Q 1294 3584 2113 3584 
Q 2378 3584 2631 3529 
Q 2884 3475 3122 3366 
z
" transform="scale(0.015625)"/>
       <path id="DejaVuSans-6e" d="M 3513 2113 
L 3513 0 
L 2938 0 
L 2938 2094 
Q 2938 2591 2744 2837 
Q 2550 3084 2163 3084 
Q 1697 3084 1428 2787 
Q 1159 2491 1159 1978 
L 1159 0 
L 581 0 
L 581 3500 
L 1159 3500 
L 1159 2956 
Q 1366 3272 1645 3428 
Q 1925 3584 2291 3584 
Q 2894 3584 3203 3211 
Q 3513 2838 3513 2113 
z
" transform="scale(0.015625)"/>
       <path id="DejaVuSans-79" d="M 2059 -325 
Q 1816 -950 1584 -1140 
Q 1353 -1331 966 -1331 
L 506 -1331 
L 506 -850 
L 844 -850 
Q 1081 -850 1212 -737 
Q 1344 -625 1503 -206 
L 1606 56 
L 191 3500 
L 800 3500 
L 1894 763 
L 2988 3500 
L 3597 3500 
L 2059 -325 
z
" transform="scale(0.015625)"/>
       <path id="DejaVuSans-28" d="M 1984 4856 
Q 1566 4138 1362 3434 
Q 1159 2731 1159 2009 
Q 1159 1288 1364 580 
Q 1569 -128 1984 -844 
L 1484 -844 
Q 1016 -109 783 600 
Q 550 1309 550 2009 
Q 550 2706 781 3412 
Q 1013 4119 1484 4856 
L 1984 4856 
z
" transform="scale(0.015625)"/>
       <path id="DejaVuSans-25" d="M 4653 2053 
Q 4381 2053 4226 1822 
Q 4072 1591 4072 1178 
Q 4072 772 4226 539 
Q 4381 306 4653 306 
Q 4919 306 5073 539 
Q 5228 772 5228 1178 
Q 5228 1588 5073 1820 
Q 4919 2053 4653 2053 
z
M 4653 2450 
Q 5147 2450 5437 2106 
Q 5728 1763 5728 1178 
Q 5728 594 5436 251 
Q 5144 -91 4653 -91 
Q 4153 -91 3862 251 
Q 3572 594 3572 1178 
Q 3572 1766 3864 2108 
Q 4156 2450 4653 2450 
z
M 1428 4353 
Q 1159 4353 1004 4120 
Q 850 3888 850 3481 
Q 850 3069 1003 2837 
Q 1156 2606 1428 2606 
Q 1700 2606 1854 2837 
Q 2009 3069 2009 3481 
Q 2009 3884 1853 4118 
Q 1697 4353 1428 4353 
z
M 4250 4750 
L 4750 4750 
L 1831 -91 
L 1331 -91 
L 4250 4750 
z
M 1428 4750 
Q 1922 4750 2215 4408 
Q 2509 4066 2509 3481 
Q 2509 2891 2217 2550 
Q 1925 2209 1428 2209 
Q 931 2209 642 2551 
Q 353 2894 353 3481 
Q 353 4063 643 4406 
Q 934 4750 1428 4750 
z
" transform="scale(0.015625)"/>
       <path id="DejaVuSans-29" d="M 513 4856 
L 1013 4856 
Q 1481 4119 1714 3412 
Q 1947 2706 1947 2009 
Q 1947 1309 1714 600 
Q 1481 -109 1013 -844 
L 513 -844 
Q 928 -128 1133 580 
Q 1338 1288 1338 2009 
Q 1338 2731 1133 3434 
Q 928 4138 513 4856 
z
" transform="scale(0.015625)"/>
      </defs>
      <use xlink:href="#DejaVuSans-57"/>
      <use xlink:href="#DejaVuSans-65" x="93.001953"/>
      <use xlink:href="#DejaVuSans-6c" x="154.525391"/>
      <use xlink:href="#DejaVuSans-6c" x="182.308594"/>
      <use xlink:href="#DejaVuSans-20" x="210.091797"/>
      <use xlink:href="#DejaVuSans-45" x="241.878906"/>
      <use xlink:href="#DejaVuSans-66" x="305.0625"/>
      <use xlink:href="#DejaVuSans-66" x="340.267578"/>
      <use xlink:href="#DejaVuSans-69" x="375.472656"/>
      <use xlink:href="#DejaVuSans-63" x="403.255859"/>
      <use xlink:href="#DejaVuSans-69" x="458.236328"/>
      <use xlink:href="#DejaVuSans-65" x="486.019531"/>
      <use xlink:href="#DejaVuSans-6e" x="547.542969"/>
      <use xlink:href="#DejaVuSans-63" x="610.921875"/>
      <use xlink:href="#DejaVuSans-79" x="665.902344"/>
      <use xlink:href="#DejaVuSans-20" x="725.082031"/>
      <use xlink:href="#DejaVuSans-28" x="756.869141"/>
      <use xlink:href="#DejaVuSans-25" x="795.882812"/>
      <use xlink:href="#DejaVuSans-29" x="890.902344"/>
     </g>
    </g>
   </g>
   <g id="matplotlib.axis_2">
    <g id="ytick_1">
     <g id="line2d_7">
      <defs>
       <path id="mf15c99d0f8" d="M 0 0 
L -3.5 0 
" style="stroke: #000000; stroke-width: 0.8"/>
      </defs>
      <g>
       <use xlink:href="#mf15c99d0f8" x="126" y="256.32" style="stroke: #000000; stroke-width: 0.8"/>
      </g>
     </g>
     <g id="text_8">
      <!-- 0.0 -->
      <g transform="translate(103.096875 260.119219) scale(0.1 -0.1)">
       <defs>
        <path id="DejaVuSans-2e" d="M 684 794 
L 1344 794 
L 1344 0 
L 684 0 
L 684 794 
z
" transform="scale(0.015625)"/>
       </defs>
       <use xlink:href="#DejaVuSans-30"/>
       <use xlink:href="#DejaVuSans-2e" x="63.623047"/>
       <use xlink:href="#DejaVuSans-30" x="95.410156"/>
      </g>
     </g>
    </g>
    <g id="ytick_2">
     <g id="line2d_8">
      <g>
       <use xlink:href="#mf15c99d0f8" x="126" y="211.968" style="stroke: #000000; stroke-width: 0.8"/>
      </g>
     </g>
     <g id="text_9">
      <!-- 0.1 -->
      <g transform="translate(103.096875 215.767219) scale(0.1 -0.1)">
       <use xlink:href="#DejaVuSans-30"/>
       <use xlink:href="#DejaVuSans-2e" x="63.623047"/>
       <use xlink:href="#DejaVuSans-31" x="95.410156"/>
      </g>
     </g>
    </g>
    <g id="ytick_3">
     <g id="line2d_9">
      <g>
       <use xlink:href="#mf15c99d0f8" x="126" y="167.616" style="stroke: #000000; stroke-width: 0.8"/>
      </g>
     </g>
     <g id="text_10">
      <!-- 0.2 -->
      <g transform="translate(103.096875 171.415219) scale(0.1 -0.1)">
       <use xlink:href="#DejaVuSans-30"/>
       <use xlink:href="#DejaVuSans-2e" x="63.623047"/>
       <use xlink:href="#DejaVuSans-32" x="95.410156"/>
      </g>
     </g>
    </g>
    <g id="ytick_4">
     <g id="line2d_10">
      <g>
       <use xlink:href="#mf15c99d0f8" x="126" y="123.264" style="stroke: #000000; stroke-width: 0.8"/>
      </g>
     </g>
     <g id="text_11">
      <!-- 0.3 -->
      <g transform="translate(103.096875 127.063219) scale(0.1 -0.1)">
       <defs>
        <path id="DejaVuSans-33" d="M 2597 2516 
Q 3050 2419 3304 2112 
Q 3559 1806 3559 1356 
Q 3559 666 3084 287 
Q 2609 -91 1734 -91 
Q 1441 -91 1130 -33 
Q 819 25 488 141 
L 488 750 
Q 750 597 1062 519 
Q 1375 441 1716 441 
Q 2309 441 2620 675 
Q 2931 909 2931 1356 
Q 2931 1769 2642 2001 
Q 2353 2234 1838 2234 
L 1294 2234 
L 1294 2753 
L 1863 2753 
Q 2328 2753 2575 2939 
Q 2822 3125 2822 3475 
Q 2822 3834 2567 4026 
Q 2313 4219 1838 4219 
Q 1578 4219 1281 4162 
Q 984 4106 628 3988 
L 628 4550 
Q 988 4650 1302 4700 
Q 1616 4750 1894 4750 
Q 2613 4750 3031 4423 
Q 3450 4097 3450 3541 
Q 3450 3153 3228 2886 
Q 3006 2619 2597 2516 
z
" transform="scale(0.015625)"/>
       </defs>
       <use xlink:href="#DejaVuSans-30"/>
       <use xlink:href="#DejaVuSans-2e" x="63.623047"/>
       <use xlink:href="#DejaVuSans-33" x="95.410156"/>
      </g>
     </g>
    </g>
    <g id="ytick_5">
     <g id="line2d_11">
      <g>
       <use xlink:href="#mf15c99d0f8" x="126" y="78.912" style="stroke: #000000; stroke-width: 0.8"/>
      </g>
     </g>
     <g id="text_12">
      <!-- 0.4 -->
      <g transform="translate(103.096875 82.711219) scale(0.1 -0.1)">
       <use xlink:href="#DejaVuSans-30"/>
       <use xlink:href="#DejaVuSans-2e" x="63.623047"/>
       <use xlink:href="#DejaVuSans-34" x="95.410156"/>
      </g>
     </g>
    </g>
    <g id="ytick_6">
     <g id="line2d_12">
      <g>
       <use xlink:href="#mf15c99d0f8" x="126" y="34.56" style="stroke: #000000; stroke-width: 0.8"/>
      </g>
     </g>
     <g id="text_13">
      <!-- 0.5 -->
      <g transform="translate(103.096875 38.359219) scale(0.1 -0.1)">
       <defs>
        <path id="DejaVuSans-35" d="M 691 4666 
L 3169 4666 
L 3169 4134 
L 1269 4134 
L 1269 2991 
Q 1406 3038 1543 3061 
Q 1681 3084 1819 3084 
Q 2600 3084 3056 2656 
Q 3513 2228 3513 1497 
Q 3513 744 3044 326 
Q 2575 -91 1722 -91 
Q 1428 -91 1123 -41 
Q 819 9 494 109 
L 494 744 
Q 775 591 1075 516 
Q 1375 441 1709 441 
Q 2250 441 2565 725 
Q 2881 1009 2881 1497 
Q 2881 1984 2565 2268 
Q 2250 2553 1709 2553 
Q 1456 2553 1204 2497 
Q 953 2441 691 2322 
L 691 4666 
z
" transform="scale(0.015625)"/>
       </defs>
       <use xlink:href="#DejaVuSans-30"/>
       <use xlink:href="#DejaVuSans-2e" x="63.623047"/>
       <use xlink:href="#DejaVuSans-35" x="95.410156"/>
      </g>
     </g>
    </g>
    <g id="text_14">
     <!-- pdf -->
     <g transform="translate(97.017187 153.548594) rotate(-90) scale(0.1 -0.1)">
      <defs>
       <path id="DejaVuSans-70" d="M 1159 525 
L 1159 -1331 
L 581 -1331 
L 581 3500 
L 1159 3500 
L 1159 2969 
Q 1341 3281 1617 3432 
Q 1894 3584 2278 3584 
Q 2916 3584 3314 3078 
Q 3713 2572 3713 1747 
Q 3713 922 3314 415 
Q 2916 -91 2278 -91 
Q 1894 -91 1617 61 
Q 1341 213 1159 525 
z
M 3116 1747 
Q 3116 2381 2855 2742 
Q 2594 3103 2138 3103 
Q 1681 3103 1420 2742 
Q 1159 2381 1159 1747 
Q 1159 1113 1420 752 
Q 1681 391 2138 391 
Q 2594 391 2855 752 
Q 3116 1113 3116 1747 
z
" transform="scale(0.015625)"/>
       <path id="DejaVuSans-64" d="M 2906 2969 
L 2906 4863 
L 3481 4863 
L 3481 0 
L 2906 0 
L 2906 525 
Q 2725 213 2448 61 
Q 2172 -91 1784 -91 
Q 1150 -91 751 415 
Q 353 922 353 1747 
Q 353 2572 751 3078 
Q 1150 3584 1784 3584 
Q 2172 3584 2448 3432 
Q 2725 3281 2906 2969 
z
M 947 1747 
Q 947 1113 1208 752 
Q 1469 391 1925 391 
Q 2381 391 2643 752 
Q 2906 1113 2906 1747 
Q 2906 2381 2643 2742 
Q 2381 3103 1925 3103 
Q 1469 3103 1208 2742 
Q 947 2381 947 1747 
z
" transform="scale(0.015625)"/>
      </defs>
      <use xlink:href="#DejaVuSans-70"/>
      <use xlink:href="#DejaVuSans-64" x="63.476562"/>
      <use xlink:href="#DejaVuSans-66" x="126.953125"/>
     </g>
    </g>
   </g>
   <g id="patch_28">
    <path d="M 126 256.32 
L 126 34.56 
" style="fill: none; stroke: #000000; stroke-width: 0.8; stroke-linejoin: miter; stroke-linecap: square"/>
   </g>
   <g id="patch_29">
    <path d="M 295.826087 256.32 
L 295.826087 34.56 
" style="fill: none; stroke: #000000; stroke-width: 0.8; stroke-linejoin: miter; stroke-linecap: square"/>
   </g>
   <g id="patch_30">
    <path d="M 126 256.32 
L 295.826087 256.32 
" style="fill: none; stroke: #000000; stroke-width: 0.8; stroke-linejoin: miter; stroke-linecap: square"/>
   </g>
   <g id="patch_31">
    <path d="M 126 34.56 
L 295.826087 34.56 
" style="fill: none; stroke: #000000; stroke-width: 0.8; stroke-linejoin: miter; stroke-linecap: square"/>
   </g>
  </g>
  <g id="axes_2">
   <g id="patch_32">
    <path d="M 329.791304 256.32 
L 499.617391 256.32 
L 499.617391 34.56 
L 329.791304 34.56 
z
" style="fill: #ffffff"/>
   </g>
   <g id="patch_33">
    <path d="M 337.510672 256.32 
L 352.949407 256.32 
L 352.949407 247.610722 
L 337.510672 247.610722 
z
" clip-path="url(#p69346a98d7)" style="fill: #1f77b4"/>
   </g>
   <g id="patch_34">
    <path d="M 352.949407 256.32 
L 368.388142 256.32 
L 368.388142 241.078763 
L 352.949407 241.078763 
z
" clip-path="url(#p69346a98d7)" style="fill: #1f77b4"/>
   </g>
   <g id="patch_35">
    <path d="M 368.388142 256.32 
L 383.826877 256.32 
L 383.826877 210.596289 
L 368.388142 210.596289 
z
" clip-path="url(#p69346a98d7)" style="fill: #1f77b4"/>
   </g>
   <g id="patch_36">
    <path d="M 383.826877 256.32 
L 399.265613 256.32 
L 399.265613 127.858144 
L 383.826877 127.858144 
z
" clip-path="url(#p69346a98d7)" style="fill: #1f77b4"/>
   </g>
   <g id="patch_37">
    <path d="M 399.265613 256.32 
L 414.704348 256.32 
L 414.704348 45.12 
L 399.265613 45.12 
z
" clip-path="url(#p69346a98d7)" style="fill: #1f77b4"/>
   </g>
   <g id="patch_38">
    <path d="M 414.704348 256.32 
L 430.143083 256.32 
L 430.143083 82.134433 
L 414.704348 82.134433 
z
" clip-path="url(#p69346a98d7)" style="fill: #1f77b4"/>
   </g>
   <g id="patch_39">
    <path d="M 430.143083 256.32 
L 445.581818 256.32 
L 445.581818 95.198351 
L 430.143083 95.198351 
z
" clip-path="url(#p69346a98d7)" style="fill: #1f77b4"/>
   </g>
   <g id="patch_40">
    <path d="M 445.581818 256.32 
L 461.020553 256.32 
L 461.020553 175.759175 
L 445.581818 175.759175 
z
" clip-path="url(#p69346a98d7)" style="fill: #1f77b4"/>
   </g>
   <g id="patch_41">
    <path d="M 461.020553 256.32 
L 476.459289 256.32 
L 476.459289 223.660206 
L 461.020553 223.660206 
z
" clip-path="url(#p69346a98d7)" style="fill: #1f77b4"/>
   </g>
   <g id="patch_42">
    <path d="M 476.459289 256.32 
L 491.898024 256.32 
L 491.898024 243.256082 
L 476.459289 243.256082 
z
" clip-path="url(#p69346a98d7)" style="fill: #1f77b4"/>
   </g>
   <g id="matplotlib.axis_3">
    <g id="xtick_7">
     <g id="line2d_13">
      <g>
       <use xlink:href="#m1557c0cba0" x="354.792652" y="256.32" style="stroke: #000000; stroke-width: 0.8"/>
      </g>
     </g>
     <g id="text_15">
      <!-- 33250 -->
      <g transform="translate(338.886402 270.918437) scale(0.1 -0.1)">
       <use xlink:href="#DejaVuSans-33"/>
       <use xlink:href="#DejaVuSans-33" x="63.623047"/>
       <use xlink:href="#DejaVuSans-32" x="127.246094"/>
       <use xlink:href="#DejaVuSans-35" x="190.869141"/>
       <use xlink:href="#DejaVuSans-30" x="254.492188"/>
      </g>
     </g>
    </g>
    <g id="xtick_8">
     <g id="line2d_14">
      <g>
       <use xlink:href="#m1557c0cba0" x="390.759442" y="256.32" style="stroke: #000000; stroke-width: 0.8"/>
      </g>
     </g>
     <g id="text_16">
      <!-- 33500 -->
      <g transform="translate(374.853192 270.918437) scale(0.1 -0.1)">
       <use xlink:href="#DejaVuSans-33"/>
       <use xlink:href="#DejaVuSans-33" x="63.623047"/>
       <use xlink:href="#DejaVuSans-35" x="127.246094"/>
       <use xlink:href="#DejaVuSans-30" x="190.869141"/>
       <use xlink:href="#DejaVuSans-30" x="254.492188"/>
      </g>
     </g>
    </g>
    <g id="xtick_9">
     <g id="line2d_15">
      <g>
       <use xlink:href="#m1557c0cba0" x="426.726232" y="256.32" style="stroke: #000000; stroke-width: 0.8"/>
      </g>
     </g>
     <g id="text_17">
      <!-- 33750 -->
      <g transform="translate(410.819982 270.918437) scale(0.1 -0.1)">
       <defs>
        <path id="DejaVuSans-37" d="M 525 4666 
L 3525 4666 
L 3525 4397 
L 1831 0 
L 1172 0 
L 2766 4134 
L 525 4134 
L 525 4666 
z
" transform="scale(0.015625)"/>
       </defs>
       <use xlink:href="#DejaVuSans-33"/>
       <use xlink:href="#DejaVuSans-33" x="63.623047"/>
       <use xlink:href="#DejaVuSans-37" x="127.246094"/>
       <use xlink:href="#DejaVuSans-35" x="190.869141"/>
       <use xlink:href="#DejaVuSans-30" x="254.492188"/>
      </g>
     </g>
    </g>
    <g id="xtick_10">
     <g id="line2d_16">
      <g>
       <use xlink:href="#m1557c0cba0" x="462.693022" y="256.32" style="stroke: #000000; stroke-width: 0.8"/>
      </g>
     </g>
     <g id="text_18">
      <!-- 34000 -->
      <g transform="translate(446.786772 270.918437) scale(0.1 -0.1)">
       <use xlink:href="#DejaVuSans-33"/>
       <use xlink:href="#DejaVuSans-34" x="63.623047"/>
       <use xlink:href="#DejaVuSans-30" x="127.246094"/>
       <use xlink:href="#DejaVuSans-30" x="190.869141"/>
       <use xlink:href="#DejaVuSans-30" x="254.492188"/>
      </g>
     </g>
    </g>
    <g id="xtick_11">
     <g id="line2d_17">
      <g>
       <use xlink:href="#m1557c0cba0" x="498.659812" y="256.32" style="stroke: #000000; stroke-width: 0.8"/>
      </g>
     </g>
     <g id="text_19">
      <!-- 34250 -->
      <g transform="translate(482.753562 270.918437) scale(0.1 -0.1)">
       <use xlink:href="#DejaVuSans-33"/>
       <use xlink:href="#DejaVuSans-34" x="63.623047"/>
       <use xlink:href="#DejaVuSans-32" x="127.246094"/>
       <use xlink:href="#DejaVuSans-35" x="190.869141"/>
       <use xlink:href="#DejaVuSans-30" x="254.492188"/>
      </g>
     </g>
    </g>
    <g id="text_20">
     <!-- Total Pumping Cost ($/yr) -->
     <g transform="translate(351.490285 284.596563) scale(0.1 -0.1)">
      <defs>
       <path id="DejaVuSans-54" d="M -19 4666 
L 3928 4666 
L 3928 4134 
L 2272 4134 
L 2272 0 
L 1638 0 
L 1638 4134 
L -19 4134 
L -19 4666 
z
" transform="scale(0.015625)"/>
       <path id="DejaVuSans-6f" d="M 1959 3097 
Q 1497 3097 1228 2736 
Q 959 2375 959 1747 
Q 959 1119 1226 758 
Q 1494 397 1959 397 
Q 2419 397 2687 759 
Q 2956 1122 2956 1747 
Q 2956 2369 2687 2733 
Q 2419 3097 1959 3097 
z
M 1959 3584 
Q 2709 3584 3137 3096 
Q 3566 2609 3566 1747 
Q 3566 888 3137 398 
Q 2709 -91 1959 -91 
Q 1206 -91 779 398 
Q 353 888 353 1747 
Q 353 2609 779 3096 
Q 1206 3584 1959 3584 
z
" transform="scale(0.015625)"/>
       <path id="DejaVuSans-74" d="M 1172 4494 
L 1172 3500 
L 2356 3500 
L 2356 3053 
L 1172 3053 
L 1172 1153 
Q 1172 725 1289 603 
Q 1406 481 1766 481 
L 2356 481 
L 2356 0 
L 1766 0 
Q 1100 0 847 248 
Q 594 497 594 1153 
L 594 3053 
L 172 3053 
L 172 3500 
L 594 3500 
L 594 4494 
L 1172 4494 
z
" transform="scale(0.015625)"/>
       <path id="DejaVuSans-61" d="M 2194 1759 
Q 1497 1759 1228 1600 
Q 959 1441 959 1056 
Q 959 750 1161 570 
Q 1363 391 1709 391 
Q 2188 391 2477 730 
Q 2766 1069 2766 1631 
L 2766 1759 
L 2194 1759 
z
M 3341 1997 
L 3341 0 
L 2766 0 
L 2766 531 
Q 2569 213 2275 61 
Q 1981 -91 1556 -91 
Q 1019 -91 701 211 
Q 384 513 384 1019 
Q 384 1609 779 1909 
Q 1175 2209 1959 2209 
L 2766 2209 
L 2766 2266 
Q 2766 2663 2505 2880 
Q 2244 3097 1772 3097 
Q 1472 3097 1187 3025 
Q 903 2953 641 2809 
L 641 3341 
Q 956 3463 1253 3523 
Q 1550 3584 1831 3584 
Q 2591 3584 2966 3190 
Q 3341 2797 3341 1997 
z
" transform="scale(0.015625)"/>
       <path id="DejaVuSans-50" d="M 1259 4147 
L 1259 2394 
L 2053 2394 
Q 2494 2394 2734 2622 
Q 2975 2850 2975 3272 
Q 2975 3691 2734 3919 
Q 2494 4147 2053 4147 
L 1259 4147 
z
M 628 4666 
L 2053 4666 
Q 2838 4666 3239 4311 
Q 3641 3956 3641 3272 
Q 3641 2581 3239 2228 
Q 2838 1875 2053 1875 
L 1259 1875 
L 1259 0 
L 628 0 
L 628 4666 
z
" transform="scale(0.015625)"/>
       <path id="DejaVuSans-75" d="M 544 1381 
L 544 3500 
L 1119 3500 
L 1119 1403 
Q 1119 906 1312 657 
Q 1506 409 1894 409 
Q 2359 409 2629 706 
Q 2900 1003 2900 1516 
L 2900 3500 
L 3475 3500 
L 3475 0 
L 2900 0 
L 2900 538 
Q 2691 219 2414 64 
Q 2138 -91 1772 -91 
Q 1169 -91 856 284 
Q 544 659 544 1381 
z
M 1991 3584 
L 1991 3584 
z
" transform="scale(0.015625)"/>
       <path id="DejaVuSans-6d" d="M 3328 2828 
Q 3544 3216 3844 3400 
Q 4144 3584 4550 3584 
Q 5097 3584 5394 3201 
Q 5691 2819 5691 2113 
L 5691 0 
L 5113 0 
L 5113 2094 
Q 5113 2597 4934 2840 
Q 4756 3084 4391 3084 
Q 3944 3084 3684 2787 
Q 3425 2491 3425 1978 
L 3425 0 
L 2847 0 
L 2847 2094 
Q 2847 2600 2669 2842 
Q 2491 3084 2119 3084 
Q 1678 3084 1418 2786 
Q 1159 2488 1159 1978 
L 1159 0 
L 581 0 
L 581 3500 
L 1159 3500 
L 1159 2956 
Q 1356 3278 1631 3431 
Q 1906 3584 2284 3584 
Q 2666 3584 2933 3390 
Q 3200 3197 3328 2828 
z
" transform="scale(0.015625)"/>
       <path id="DejaVuSans-67" d="M 2906 1791 
Q 2906 2416 2648 2759 
Q 2391 3103 1925 3103 
Q 1463 3103 1205 2759 
Q 947 2416 947 1791 
Q 947 1169 1205 825 
Q 1463 481 1925 481 
Q 2391 481 2648 825 
Q 2906 1169 2906 1791 
z
M 3481 434 
Q 3481 -459 3084 -895 
Q 2688 -1331 1869 -1331 
Q 1566 -1331 1297 -1286 
Q 1028 -1241 775 -1147 
L 775 -588 
Q 1028 -725 1275 -790 
Q 1522 -856 1778 -856 
Q 2344 -856 2625 -561 
Q 2906 -266 2906 331 
L 2906 616 
Q 2728 306 2450 153 
Q 2172 0 1784 0 
Q 1141 0 747 490 
Q 353 981 353 1791 
Q 353 2603 747 3093 
Q 1141 3584 1784 3584 
Q 2172 3584 2450 3431 
Q 2728 3278 2906 2969 
L 2906 3500 
L 3481 3500 
L 3481 434 
z
" transform="scale(0.015625)"/>
       <path id="DejaVuSans-43" d="M 4122 4306 
L 4122 3641 
Q 3803 3938 3442 4084 
Q 3081 4231 2675 4231 
Q 1875 4231 1450 3742 
Q 1025 3253 1025 2328 
Q 1025 1406 1450 917 
Q 1875 428 2675 428 
Q 3081 428 3442 575 
Q 3803 722 4122 1019 
L 4122 359 
Q 3791 134 3420 21 
Q 3050 -91 2638 -91 
Q 1578 -91 968 557 
Q 359 1206 359 2328 
Q 359 3453 968 4101 
Q 1578 4750 2638 4750 
Q 3056 4750 3426 4639 
Q 3797 4528 4122 4306 
z
" transform="scale(0.015625)"/>
       <path id="DejaVuSans-73" d="M 2834 3397 
L 2834 2853 
Q 2591 2978 2328 3040 
Q 2066 3103 1784 3103 
Q 1356 3103 1142 2972 
Q 928 2841 928 2578 
Q 928 2378 1081 2264 
Q 1234 2150 1697 2047 
L 1894 2003 
Q 2506 1872 2764 1633 
Q 3022 1394 3022 966 
Q 3022 478 2636 193 
Q 2250 -91 1575 -91 
Q 1294 -91 989 -36 
Q 684 19 347 128 
L 347 722 
Q 666 556 975 473 
Q 1284 391 1588 391 
Q 1994 391 2212 530 
Q 2431 669 2431 922 
Q 2431 1156 2273 1281 
Q 2116 1406 1581 1522 
L 1381 1569 
Q 847 1681 609 1914 
Q 372 2147 372 2553 
Q 372 3047 722 3315 
Q 1072 3584 1716 3584 
Q 2034 3584 2315 3537 
Q 2597 3491 2834 3397 
z
" transform="scale(0.015625)"/>
       <path id="DejaVuSans-24" d="M 2163 -941 
L 1850 -941 
L 1847 0 
Q 1519 6 1191 76 
Q 863 147 531 288 
L 531 850 
Q 850 650 1176 548 
Q 1503 447 1850 444 
L 1850 1869 
Q 1159 1981 845 2250 
Q 531 2519 531 2988 
Q 531 3497 872 3790 
Q 1213 4084 1850 4128 
L 1850 4863 
L 2163 4863 
L 2163 4138 
Q 2453 4125 2725 4076 
Q 2997 4028 3256 3944 
L 3256 3397 
Q 2997 3528 2723 3600 
Q 2450 3672 2163 3684 
L 2163 2350 
Q 2872 2241 3206 1959 
Q 3541 1678 3541 1191 
Q 3541 663 3186 358 
Q 2831 53 2163 6 
L 2163 -941 
z
M 1850 2406 
L 1850 3688 
Q 1488 3647 1297 3481 
Q 1106 3316 1106 3041 
Q 1106 2772 1282 2622 
Q 1459 2472 1850 2406 
z
M 2163 1806 
L 2163 453 
Q 2559 506 2761 678 
Q 2963 850 2963 1131 
Q 2963 1406 2770 1568 
Q 2578 1731 2163 1806 
z
" transform="scale(0.015625)"/>
       <path id="DejaVuSans-2f" d="M 1625 4666 
L 2156 4666 
L 531 -594 
L 0 -594 
L 1625 4666 
z
" transform="scale(0.015625)"/>
       <path id="DejaVuSans-72" d="M 2631 2963 
Q 2534 3019 2420 3045 
Q 2306 3072 2169 3072 
Q 1681 3072 1420 2755 
Q 1159 2438 1159 1844 
L 1159 0 
L 581 0 
L 581 3500 
L 1159 3500 
L 1159 2956 
Q 1341 3275 1631 3429 
Q 1922 3584 2338 3584 
Q 2397 3584 2469 3576 
Q 2541 3569 2628 3553 
L 2631 2963 
z
" transform="scale(0.015625)"/>
      </defs>
      <use xlink:href="#DejaVuSans-54"/>
      <use xlink:href="#DejaVuSans-6f" x="44.083984"/>
      <use xlink:href="#DejaVuSans-74" x="105.265625"/>
      <use xlink:href="#DejaVuSans-61" x="144.474609"/>
      <use xlink:href="#DejaVuSans-6c" x="205.753906"/>
      <use xlink:href="#DejaVuSans-20" x="233.537109"/>
      <use xlink:href="#DejaVuSans-50" x="265.324219"/>
      <use xlink:href="#DejaVuSans-75" x="323.876953"/>
      <use xlink:href="#DejaVuSans-6d" x="387.255859"/>
      <use xlink:href="#DejaVuSans-70" x="484.667969"/>
      <use xlink:href="#DejaVuSans-69" x="548.144531"/>
      <use xlink:href="#DejaVuSans-6e" x="575.927734"/>
      <use xlink:href="#DejaVuSans-67" x="639.306641"/>
      <use xlink:href="#DejaVuSans-20" x="702.783203"/>
      <use xlink:href="#DejaVuSans-43" x="734.570312"/>
      <use xlink:href="#DejaVuSans-6f" x="804.394531"/>
      <use xlink:href="#DejaVuSans-73" x="865.576172"/>
      <use xlink:href="#DejaVuSans-74" x="917.675781"/>
      <use xlink:href="#DejaVuSans-20" x="956.884766"/>
      <use xlink:href="#DejaVuSans-28" x="988.671875"/>
      <use xlink:href="#DejaVuSans-24" x="1027.685547"/>
      <use xlink:href="#DejaVuSans-2f" x="1091.308594"/>
      <use xlink:href="#DejaVuSans-79" x="1125"/>
      <use xlink:href="#DejaVuSans-72" x="1184.179688"/>
      <use xlink:href="#DejaVuSans-29" x="1225.292969"/>
     </g>
    </g>
   </g>
   <g id="matplotlib.axis_4">
    <g id="ytick_7">
     <g id="line2d_18">
      <g>
       <use xlink:href="#mf15c99d0f8" x="329.791304" y="256.32" style="stroke: #000000; stroke-width: 0.8"/>
      </g>
     </g>
     <g id="text_21">
      <!-- 0.0000 -->
      <g transform="translate(287.800679 260.119219) scale(0.1 -0.1)">
       <use xlink:href="#DejaVuSans-30"/>
       <use xlink:href="#DejaVuSans-2e" x="63.623047"/>
       <use xlink:href="#DejaVuSans-30" x="95.410156"/>
       <use xlink:href="#DejaVuSans-30" x="159.033203"/>
       <use xlink:href="#DejaVuSans-30" x="222.65625"/>
       <use xlink:href="#DejaVuSans-30" x="286.279297"/>
      </g>
     </g>
    </g>
    <g id="ytick_8">
     <g id="line2d_19">
      <g>
       <use xlink:href="#mf15c99d0f8" x="329.791304" y="209.589307" style="stroke: #000000; stroke-width: 0.8"/>
      </g>
     </g>
     <g id="text_22">
      <!-- 0.0005 -->
      <g transform="translate(287.800679 213.388525) scale(0.1 -0.1)">
       <use xlink:href="#DejaVuSans-30"/>
       <use xlink:href="#DejaVuSans-2e" x="63.623047"/>
       <use xlink:href="#DejaVuSans-30" x="95.410156"/>
       <use xlink:href="#DejaVuSans-30" x="159.033203"/>
       <use xlink:href="#DejaVuSans-30" x="222.65625"/>
       <use xlink:href="#DejaVuSans-35" x="286.279297"/>
      </g>
     </g>
    </g>
    <g id="ytick_9">
     <g id="line2d_20">
      <g>
       <use xlink:href="#mf15c99d0f8" x="329.791304" y="162.858613" style="stroke: #000000; stroke-width: 0.8"/>
      </g>
     </g>
     <g id="text_23">
      <!-- 0.0010 -->
      <g transform="translate(287.800679 166.657832) scale(0.1 -0.1)">
       <use xlink:href="#DejaVuSans-30"/>
       <use xlink:href="#DejaVuSans-2e" x="63.623047"/>
       <use xlink:href="#DejaVuSans-30" x="95.410156"/>
       <use xlink:href="#DejaVuSans-30" x="159.033203"/>
       <use xlink:href="#DejaVuSans-31" x="222.65625"/>
       <use xlink:href="#DejaVuSans-30" x="286.279297"/>
      </g>
     </g>
    </g>
    <g id="ytick_10">
     <g id="line2d_21">
      <g>
       <use xlink:href="#mf15c99d0f8" x="329.791304" y="116.12792" style="stroke: #000000; stroke-width: 0.8"/>
      </g>
     </g>
     <g id="text_24">
      <!-- 0.0015 -->
      <g transform="translate(287.800679 119.927139) scale(0.1 -0.1)">
       <use xlink:href="#DejaVuSans-30"/>
       <use xlink:href="#DejaVuSans-2e" x="63.623047"/>
       <use xlink:href="#DejaVuSans-30" x="95.410156"/>
       <use xlink:href="#DejaVuSans-30" x="159.033203"/>
       <use xlink:href="#DejaVuSans-31" x="222.65625"/>
       <use xlink:href="#DejaVuSans-35" x="286.279297"/>
      </g>
     </g>
    </g>
    <g id="ytick_11">
     <g id="line2d_22">
      <g>
       <use xlink:href="#mf15c99d0f8" x="329.791304" y="69.397227" style="stroke: #000000; stroke-width: 0.8"/>
      </g>
     </g>
     <g id="text_25">
      <!-- 0.0020 -->
      <g transform="translate(287.800679 73.196445) scale(0.1 -0.1)">
       <use xlink:href="#DejaVuSans-30"/>
       <use xlink:href="#DejaVuSans-2e" x="63.623047"/>
       <use xlink:href="#DejaVuSans-30" x="95.410156"/>
       <use xlink:href="#DejaVuSans-30" x="159.033203"/>
       <use xlink:href="#DejaVuSans-32" x="222.65625"/>
       <use xlink:href="#DejaVuSans-30" x="286.279297"/>
      </g>
     </g>
    </g>
   </g>
   <g id="patch_43">
    <path d="M 329.791304 256.32 
L 329.791304 34.56 
" style="fill: none; stroke: #000000; stroke-width: 0.8; stroke-linejoin: miter; stroke-linecap: square"/>
   </g>
   <g id="patch_44">
    <path d="M 499.617391 256.32 
L 499.617391 34.56 
" style="fill: none; stroke: #000000; stroke-width: 0.8; stroke-linejoin: miter; stroke-linecap: square"/>
   </g>
   <g id="patch_45">
    <path d="M 329.791304 256.32 
L 499.617391 256.32 
" style="fill: none; stroke: #000000; stroke-width: 0.8; stroke-linejoin: miter; stroke-linecap: square"/>
   </g>
   <g id="patch_46">
    <path d="M 329.791304 34.56 
L 499.617391 34.56 
" style="fill: none; stroke: #000000; stroke-width: 0.8; stroke-linejoin: miter; stroke-linecap: square"/>
   </g>
  </g>
  <g id="axes_3">
   <g id="patch_47">
    <path d="M 533.582609 256.32 
L 703.408696 256.32 
L 703.408696 34.56 
L 533.582609 34.56 
z
" style="fill: #ffffff"/>
   </g>
   <g id="patch_48">
    <path d="M 541.301976 256.32 
L 556.740711 256.32 
L 556.740711 250.046733 
L 541.301976 250.046733 
z
" clip-path="url(#pccf539a5a0)" style="fill: #1f77b4"/>
   </g>
   <g id="patch_49">
    <path d="M 556.740711 256.32 
L 572.179447 256.32 
L 572.179447 243.773465 
L 556.740711 243.773465 
z
" clip-path="url(#pccf539a5a0)" style="fill: #1f77b4"/>
   </g>
   <g id="patch_50">
    <path d="M 572.179447 256.32 
L 587.618182 256.32 
L 587.618182 229.135842 
L 572.179447 229.135842 
z
" clip-path="url(#pccf539a5a0)" style="fill: #1f77b4"/>
   </g>
   <g id="patch_51">
    <path d="M 587.618182 256.32 
L 603.056917 256.32 
L 603.056917 139.21901 
L 587.618182 139.21901 
z
" clip-path="url(#pccf539a5a0)" style="fill: #1f77b4"/>
   </g>
   <g id="patch_52">
    <path d="M 603.056917 256.32 
L 618.495652 256.32 
L 618.495652 101.579406 
L 603.056917 101.579406 
z
" clip-path="url(#pccf539a5a0)" style="fill: #1f77b4"/>
   </g>
   <g id="patch_53">
    <path d="M 618.495652 256.32 
L 633.934387 256.32 
L 633.934387 45.12 
L 618.495652 45.12 
z
" clip-path="url(#pccf539a5a0)" style="fill: #1f77b4"/>
   </g>
   <g id="patch_54">
    <path d="M 633.934387 256.32 
L 649.373123 256.32 
L 649.373123 95.306139 
L 633.934387 95.306139 
z
" clip-path="url(#pccf539a5a0)" style="fill: #1f77b4"/>
   </g>
   <g id="patch_55">
    <path d="M 649.373123 256.32 
L 664.811858 256.32 
L 664.811858 151.765545 
L 649.373123 151.765545 
z
" clip-path="url(#pccf539a5a0)" style="fill: #1f77b4"/>
   </g>
   <g id="patch_56">
    <path d="M 664.811858 256.32 
L 680.250593 256.32 
L 680.250593 222.862574 
L 664.811858 222.862574 
z
" clip-path="url(#pccf539a5a0)" style="fill: #1f77b4"/>
   </g>
   <g id="patch_57">
    <path d="M 680.250593 256.32 
L 695.689328 256.32 
L 695.689328 247.955644 
L 680.250593 247.955644 
z
" clip-path="url(#pccf539a5a0)" style="fill: #1f77b4"/>
   </g>
   <g id="matplotlib.axis_5">
    <g id="xtick_12">
     <g id="line2d_23">
      <g>
       <use xlink:href="#m1557c0cba0" x="542.328805" y="256.32" style="stroke: #000000; stroke-width: 0.8"/>
      </g>
     </g>
     <g id="text_26">
      <!-- 32500 -->
      <g transform="translate(526.422555 270.918437) scale(0.1 -0.1)">
       <use xlink:href="#DejaVuSans-33"/>
       <use xlink:href="#DejaVuSans-32" x="63.623047"/>
       <use xlink:href="#DejaVuSans-35" x="127.246094"/>
       <use xlink:href="#DejaVuSans-30" x="190.869141"/>
       <use xlink:href="#DejaVuSans-30" x="254.492188"/>
      </g>
     </g>
    </g>
    <g id="xtick_13">
     <g id="line2d_24">
      <g>
       <use xlink:href="#m1557c0cba0" x="597.266427" y="256.32" style="stroke: #000000; stroke-width: 0.8"/>
      </g>
     </g>
     <g id="text_27">
      <!-- 33000 -->
      <g transform="translate(581.360177 270.918437) scale(0.1 -0.1)">
       <use xlink:href="#DejaVuSans-33"/>
       <use xlink:href="#DejaVuSans-33" x="63.623047"/>
       <use xlink:href="#DejaVuSans-30" x="127.246094"/>
       <use xlink:href="#DejaVuSans-30" x="190.869141"/>
       <use xlink:href="#DejaVuSans-30" x="254.492188"/>
      </g>
     </g>
    </g>
    <g id="xtick_14">
     <g id="line2d_25">
      <g>
       <use xlink:href="#m1557c0cba0" x="652.204049" y="256.32" style="stroke: #000000; stroke-width: 0.8"/>
      </g>
     </g>
     <g id="text_28">
      <!-- 33500 -->
      <g transform="translate(636.297799 270.918437) scale(0.1 -0.1)">
       <use xlink:href="#DejaVuSans-33"/>
       <use xlink:href="#DejaVuSans-33" x="63.623047"/>
       <use xlink:href="#DejaVuSans-35" x="127.246094"/>
       <use xlink:href="#DejaVuSans-30" x="190.869141"/>
       <use xlink:href="#DejaVuSans-30" x="254.492188"/>
      </g>
     </g>
    </g>
    <g id="text_29">
     <!-- Theis Pumping Cost ($/yr) -->
     <g transform="translate(553.665183 284.596563) scale(0.1 -0.1)">
      <defs>
       <path id="DejaVuSans-68" d="M 3513 2113 
L 3513 0 
L 2938 0 
L 2938 2094 
Q 2938 2591 2744 2837 
Q 2550 3084 2163 3084 
Q 1697 3084 1428 2787 
Q 1159 2491 1159 1978 
L 1159 0 
L 581 0 
L 581 4863 
L 1159 4863 
L 1159 2956 
Q 1366 3272 1645 3428 
Q 1925 3584 2291 3584 
Q 2894 3584 3203 3211 
Q 3513 2838 3513 2113 
z
" transform="scale(0.015625)"/>
      </defs>
      <use xlink:href="#DejaVuSans-54"/>
      <use xlink:href="#DejaVuSans-68" x="61.083984"/>
      <use xlink:href="#DejaVuSans-65" x="124.462891"/>
      <use xlink:href="#DejaVuSans-69" x="185.986328"/>
      <use xlink:href="#DejaVuSans-73" x="213.769531"/>
      <use xlink:href="#DejaVuSans-20" x="265.869141"/>
      <use xlink:href="#DejaVuSans-50" x="297.65625"/>
      <use xlink:href="#DejaVuSans-75" x="356.208984"/>
      <use xlink:href="#DejaVuSans-6d" x="419.587891"/>
      <use xlink:href="#DejaVuSans-70" x="517"/>
      <use xlink:href="#DejaVuSans-69" x="580.476562"/>
      <use xlink:href="#DejaVuSans-6e" x="608.259766"/>
      <use xlink:href="#DejaVuSans-67" x="671.638672"/>
      <use xlink:href="#DejaVuSans-20" x="735.115234"/>
      <use xlink:href="#DejaVuSans-43" x="766.902344"/>
      <use xlink:href="#DejaVuSans-6f" x="836.726562"/>
      <use xlink:href="#DejaVuSans-73" x="897.908203"/>
      <use xlink:href="#DejaVuSans-74" x="950.007812"/>
      <use xlink:href="#DejaVuSans-20" x="989.216797"/>
      <use xlink:href="#DejaVuSans-28" x="1021.003906"/>
      <use xlink:href="#DejaVuSans-24" x="1060.017578"/>
      <use xlink:href="#DejaVuSans-2f" x="1123.640625"/>
      <use xlink:href="#DejaVuSans-79" x="1157.332031"/>
      <use xlink:href="#DejaVuSans-72" x="1216.511719"/>
      <use xlink:href="#DejaVuSans-29" x="1257.625"/>
     </g>
    </g>
   </g>
   <g id="matplotlib.axis_6">
    <g id="ytick_12">
     <g id="line2d_26">
      <g>
       <use xlink:href="#mf15c99d0f8" x="533.582609" y="256.32" style="stroke: #000000; stroke-width: 0.8"/>
      </g>
     </g>
     <g id="text_30">
      <!-- 0.00000 -->
      <g transform="translate(485.229484 260.119219) scale(0.1 -0.1)">
       <use xlink:href="#DejaVuSans-30"/>
       <use xlink:href="#DejaVuSans-2e" x="63.623047"/>
       <use xlink:href="#DejaVuSans-30" x="95.410156"/>
       <use xlink:href="#DejaVuSans-30" x="159.033203"/>
       <use xlink:href="#DejaVuSans-30" x="222.65625"/>
       <use xlink:href="#DejaVuSans-30" x="286.279297"/>
       <use xlink:href="#DejaVuSans-30" x="349.902344"/>
      </g>
     </g>
    </g>
    <g id="ytick_13">
     <g id="line2d_27">
      <g>
       <use xlink:href="#mf15c99d0f8" x="533.582609" y="226.937793" style="stroke: #000000; stroke-width: 0.8"/>
      </g>
     </g>
     <g id="text_31">
      <!-- 0.00025 -->
      <g transform="translate(485.229484 230.737012) scale(0.1 -0.1)">
       <use xlink:href="#DejaVuSans-30"/>
       <use xlink:href="#DejaVuSans-2e" x="63.623047"/>
       <use xlink:href="#DejaVuSans-30" x="95.410156"/>
       <use xlink:href="#DejaVuSans-30" x="159.033203"/>
       <use xlink:href="#DejaVuSans-30" x="222.65625"/>
       <use xlink:href="#DejaVuSans-32" x="286.279297"/>
       <use xlink:href="#DejaVuSans-35" x="349.902344"/>
      </g>
     </g>
    </g>
    <g id="ytick_14">
     <g id="line2d_28">
      <g>
       <use xlink:href="#mf15c99d0f8" x="533.582609" y="197.555587" style="stroke: #000000; stroke-width: 0.8"/>
      </g>
     </g>
     <g id="text_32">
      <!-- 0.00050 -->
      <g transform="translate(485.229484 201.354806) scale(0.1 -0.1)">
       <use xlink:href="#DejaVuSans-30"/>
       <use xlink:href="#DejaVuSans-2e" x="63.623047"/>
       <use xlink:href="#DejaVuSans-30" x="95.410156"/>
       <use xlink:href="#DejaVuSans-30" x="159.033203"/>
       <use xlink:href="#DejaVuSans-30" x="222.65625"/>
       <use xlink:href="#DejaVuSans-35" x="286.279297"/>
       <use xlink:href="#DejaVuSans-30" x="349.902344"/>
      </g>
     </g>
    </g>
    <g id="ytick_15">
     <g id="line2d_29">
      <g>
       <use xlink:href="#mf15c99d0f8" x="533.582609" y="168.17338" style="stroke: #000000; stroke-width: 0.8"/>
      </g>
     </g>
     <g id="text_33">
      <!-- 0.00075 -->
      <g transform="translate(485.229484 171.972599) scale(0.1 -0.1)">
       <use xlink:href="#DejaVuSans-30"/>
       <use xlink:href="#DejaVuSans-2e" x="63.623047"/>
       <use xlink:href="#DejaVuSans-30" x="95.410156"/>
       <use xlink:href="#DejaVuSans-30" x="159.033203"/>
       <use xlink:href="#DejaVuSans-30" x="222.65625"/>
       <use xlink:href="#DejaVuSans-37" x="286.279297"/>
       <use xlink:href="#DejaVuSans-35" x="349.902344"/>
      </g>
     </g>
    </g>
    <g id="ytick_16">
     <g id="line2d_30">
      <g>
       <use xlink:href="#mf15c99d0f8" x="533.582609" y="138.791174" style="stroke: #000000; stroke-width: 0.8"/>
      </g>
     </g>
     <g id="text_34">
      <!-- 0.00100 -->
      <g transform="translate(485.229484 142.590393) scale(0.1 -0.1)">
       <use xlink:href="#DejaVuSans-30"/>
       <use xlink:href="#DejaVuSans-2e" x="63.623047"/>
       <use xlink:href="#DejaVuSans-30" x="95.410156"/>
       <use xlink:href="#DejaVuSans-30" x="159.033203"/>
       <use xlink:href="#DejaVuSans-31" x="222.65625"/>
       <use xlink:href="#DejaVuSans-30" x="286.279297"/>
       <use xlink:href="#DejaVuSans-30" x="349.902344"/>
      </g>
     </g>
    </g>
    <g id="ytick_17">
     <g id="line2d_31">
      <g>
       <use xlink:href="#mf15c99d0f8" x="533.582609" y="109.408967" style="stroke: #000000; stroke-width: 0.8"/>
      </g>
     </g>
     <g id="text_35">
      <!-- 0.00125 -->
      <g transform="translate(485.229484 113.208186) scale(0.1 -0.1)">
       <use xlink:href="#DejaVuSans-30"/>
       <use xlink:href="#DejaVuSans-2e" x="63.623047"/>
       <use xlink:href="#DejaVuSans-30" x="95.410156"/>
       <use xlink:href="#DejaVuSans-30" x="159.033203"/>
       <use xlink:href="#DejaVuSans-31" x="222.65625"/>
       <use xlink:href="#DejaVuSans-32" x="286.279297"/>
       <use xlink:href="#DejaVuSans-35" x="349.902344"/>
      </g>
     </g>
    </g>
    <g id="ytick_18">
     <g id="line2d_32">
      <g>
       <use xlink:href="#mf15c99d0f8" x="533.582609" y="80.026761" style="stroke: #000000; stroke-width: 0.8"/>
      </g>
     </g>
     <g id="text_36">
      <!-- 0.00150 -->
      <g transform="translate(485.229484 83.82598) scale(0.1 -0.1)">
       <use xlink:href="#DejaVuSans-30"/>
       <use xlink:href="#DejaVuSans-2e" x="63.623047"/>
       <use xlink:href="#DejaVuSans-30" x="95.410156"/>
       <use xlink:href="#DejaVuSans-30" x="159.033203"/>
       <use xlink:href="#DejaVuSans-31" x="222.65625"/>
       <use xlink:href="#DejaVuSans-35" x="286.279297"/>
       <use xlink:href="#DejaVuSans-30" x="349.902344"/>
      </g>
     </g>
    </g>
    <g id="ytick_19">
     <g id="line2d_33">
      <g>
       <use xlink:href="#mf15c99d0f8" x="533.582609" y="50.644554" style="stroke: #000000; stroke-width: 0.8"/>
      </g>
     </g>
     <g id="text_37">
      <!-- 0.00175 -->
      <g transform="translate(485.229484 54.443773) scale(0.1 -0.1)">
       <use xlink:href="#DejaVuSans-30"/>
       <use xlink:href="#DejaVuSans-2e" x="63.623047"/>
       <use xlink:href="#DejaVuSans-30" x="95.410156"/>
       <use xlink:href="#DejaVuSans-30" x="159.033203"/>
       <use xlink:href="#DejaVuSans-31" x="222.65625"/>
       <use xlink:href="#DejaVuSans-37" x="286.279297"/>
       <use xlink:href="#DejaVuSans-35" x="349.902344"/>
      </g>
     </g>
    </g>
   </g>
   <g id="patch_58">
    <path d="M 533.582609 256.32 
L 533.582609 34.56 
" style="fill: none; stroke: #000000; stroke-width: 0.8; stroke-linejoin: miter; stroke-linecap: square"/>
   </g>
   <g id="patch_59">
    <path d="M 703.408696 256.32 
L 703.408696 34.56 
" style="fill: none; stroke: #000000; stroke-width: 0.8; stroke-linejoin: miter; stroke-linecap: square"/>
   </g>
   <g id="patch_60">
    <path d="M 533.582609 256.32 
L 703.408696 256.32 
" style="fill: none; stroke: #000000; stroke-width: 0.8; stroke-linejoin: miter; stroke-linecap: square"/>
   </g>
   <g id="patch_61">
    <path d="M 533.582609 34.56 
L 703.408696 34.56 
" style="fill: none; stroke: #000000; stroke-width: 0.8; stroke-linejoin: miter; stroke-linecap: square"/>
   </g>
  </g>
  <g id="axes_4">
   <g id="patch_62">
    <path d="M 737.373913 256.32 
L 907.2 256.32 
L 907.2 34.56 
L 737.373913 34.56 
z
" style="fill: #ffffff"/>
   </g>
   <g id="patch_63">
    <path d="M 745.093281 256.32 
L 760.532016 256.32 
L 760.532016 217.478621 
L 745.093281 217.478621 
z
" clip-path="url(#pfc83605ec9)" style="fill: #1f77b4"/>
   </g>
   <g id="patch_64">
    <path d="M 760.532016 256.32 
L 775.970751 256.32 
L 775.970751 151.933793 
L 760.532016 151.933793 
z
" clip-path="url(#pfc83605ec9)" style="fill: #1f77b4"/>
   </g>
   <g id="patch_65">
    <path d="M 775.970751 256.32 
L 791.409486 256.32 
L 791.409486 74.251034 
L 775.970751 74.251034 
z
" clip-path="url(#pfc83605ec9)" style="fill: #1f77b4"/>
   </g>
   <g id="patch_66">
    <path d="M 791.409486 256.32 
L 806.848221 256.32 
L 806.848221 45.12 
L 791.409486 45.12 
z
" clip-path="url(#pfc83605ec9)" style="fill: #1f77b4"/>
   </g>
   <g id="patch_67">
    <path d="M 806.848221 256.32 
L 822.286957 256.32 
L 822.286957 59.685517 
L 806.848221 59.685517 
z
" clip-path="url(#pfc83605ec9)" style="fill: #1f77b4"/>
   </g>
   <g id="patch_68">
    <path d="M 822.286957 256.32 
L 837.725692 256.32 
L 837.725692 137.368276 
L 822.286957 137.368276 
z
" clip-path="url(#pfc83605ec9)" style="fill: #1f77b4"/>
   </g>
   <g id="patch_69">
    <path d="M 837.725692 256.32 
L 853.164427 256.32 
L 853.164427 207.768276 
L 837.725692 207.768276 
z
" clip-path="url(#pfc83605ec9)" style="fill: #1f77b4"/>
   </g>
   <g id="patch_70">
    <path d="M 853.164427 256.32 
L 868.603162 256.32 
L 868.603162 210.195862 
L 853.164427 210.195862 
z
" clip-path="url(#pfc83605ec9)" style="fill: #1f77b4"/>
   </g>
   <g id="patch_71">
    <path d="M 868.603162 256.32 
L 884.041897 256.32 
L 884.041897 241.754483 
L 868.603162 241.754483 
z
" clip-path="url(#pfc83605ec9)" style="fill: #1f77b4"/>
   </g>
   <g id="patch_72">
    <path d="M 884.041897 256.32 
L 899.480632 256.32 
L 899.480632 246.609655 
L 884.041897 246.609655 
z
" clip-path="url(#pfc83605ec9)" style="fill: #1f77b4"/>
   </g>
   <g id="matplotlib.axis_7">
    <g id="xtick_15">
     <g id="line2d_34">
      <g>
       <use xlink:href="#m1557c0cba0" x="751.865288" y="256.32" style="stroke: #000000; stroke-width: 0.8"/>
      </g>
     </g>
     <g id="text_38">
      <!-- 300 -->
      <g transform="translate(742.321538 270.918437) scale(0.1 -0.1)">
       <use xlink:href="#DejaVuSans-33"/>
       <use xlink:href="#DejaVuSans-30" x="63.623047"/>
       <use xlink:href="#DejaVuSans-30" x="127.246094"/>
      </g>
     </g>
    </g>
    <g id="xtick_16">
     <g id="line2d_35">
      <g>
       <use xlink:href="#m1557c0cba0" x="790.18309" y="256.32" style="stroke: #000000; stroke-width: 0.8"/>
      </g>
     </g>
     <g id="text_39">
      <!-- 400 -->
      <g transform="translate(780.63934 270.918437) scale(0.1 -0.1)">
       <use xlink:href="#DejaVuSans-34"/>
       <use xlink:href="#DejaVuSans-30" x="63.623047"/>
       <use xlink:href="#DejaVuSans-30" x="127.246094"/>
      </g>
     </g>
    </g>
    <g id="xtick_17">
     <g id="line2d_36">
      <g>
       <use xlink:href="#m1557c0cba0" x="828.500893" y="256.32" style="stroke: #000000; stroke-width: 0.8"/>
      </g>
     </g>
     <g id="text_40">
      <!-- 500 -->
      <g transform="translate(818.957143 270.918437) scale(0.1 -0.1)">
       <use xlink:href="#DejaVuSans-35"/>
       <use xlink:href="#DejaVuSans-30" x="63.623047"/>
       <use xlink:href="#DejaVuSans-30" x="127.246094"/>
      </g>
     </g>
    </g>
    <g id="xtick_18">
     <g id="line2d_37">
      <g>
       <use xlink:href="#m1557c0cba0" x="866.818695" y="256.32" style="stroke: #000000; stroke-width: 0.8"/>
      </g>
     </g>
     <g id="text_41">
      <!-- 600 -->
      <g transform="translate(857.274945 270.918437) scale(0.1 -0.1)">
       <use xlink:href="#DejaVuSans-36"/>
       <use xlink:href="#DejaVuSans-30" x="63.623047"/>
       <use xlink:href="#DejaVuSans-30" x="127.246094"/>
      </g>
     </g>
    </g>
    <g id="xtick_19">
     <g id="line2d_38">
      <g>
       <use xlink:href="#m1557c0cba0" x="905.136497" y="256.32" style="stroke: #000000; stroke-width: 0.8"/>
      </g>
     </g>
     <g id="text_42">
      <!-- 700 -->
      <g transform="translate(895.592747 270.918437) scale(0.1 -0.1)">
       <use xlink:href="#DejaVuSans-37"/>
       <use xlink:href="#DejaVuSans-30" x="63.623047"/>
       <use xlink:href="#DejaVuSans-30" x="127.246094"/>
      </g>
     </g>
    </g>
    <g id="text_43">
     <!-- Nonlinear Drawdown Cost ($/yr) -->
     <g transform="translate(741.960394 284.596563) scale(0.1 -0.1)">
      <defs>
       <path id="DejaVuSans-4e" d="M 628 4666 
L 1478 4666 
L 3547 763 
L 3547 4666 
L 4159 4666 
L 4159 0 
L 3309 0 
L 1241 3903 
L 1241 0 
L 628 0 
L 628 4666 
z
" transform="scale(0.015625)"/>
       <path id="DejaVuSans-44" d="M 1259 4147 
L 1259 519 
L 2022 519 
Q 2988 519 3436 956 
Q 3884 1394 3884 2338 
Q 3884 3275 3436 3711 
Q 2988 4147 2022 4147 
L 1259 4147 
z
M 628 4666 
L 1925 4666 
Q 3281 4666 3915 4102 
Q 4550 3538 4550 2338 
Q 4550 1131 3912 565 
Q 3275 0 1925 0 
L 628 0 
L 628 4666 
z
" transform="scale(0.015625)"/>
       <path id="DejaVuSans-77" d="M 269 3500 
L 844 3500 
L 1563 769 
L 2278 3500 
L 2956 3500 
L 3675 769 
L 4391 3500 
L 4966 3500 
L 4050 0 
L 3372 0 
L 2619 2869 
L 1863 0 
L 1184 0 
L 269 3500 
z
" transform="scale(0.015625)"/>
      </defs>
      <use xlink:href="#DejaVuSans-4e"/>
      <use xlink:href="#DejaVuSans-6f" x="74.804688"/>
      <use xlink:href="#DejaVuSans-6e" x="135.986328"/>
      <use xlink:href="#DejaVuSans-6c" x="199.365234"/>
      <use xlink:href="#DejaVuSans-69" x="227.148438"/>
      <use xlink:href="#DejaVuSans-6e" x="254.931641"/>
      <use xlink:href="#DejaVuSans-65" x="318.310547"/>
      <use xlink:href="#DejaVuSans-61" x="379.833984"/>
      <use xlink:href="#DejaVuSans-72" x="441.113281"/>
      <use xlink:href="#DejaVuSans-20" x="482.226562"/>
      <use xlink:href="#DejaVuSans-44" x="514.013672"/>
      <use xlink:href="#DejaVuSans-72" x="591.015625"/>
      <use xlink:href="#DejaVuSans-61" x="632.128906"/>
      <use xlink:href="#DejaVuSans-77" x="693.408203"/>
      <use xlink:href="#DejaVuSans-64" x="775.195312"/>
      <use xlink:href="#DejaVuSans-6f" x="838.671875"/>
      <use xlink:href="#DejaVuSans-77" x="899.853516"/>
      <use xlink:href="#DejaVuSans-6e" x="981.640625"/>
      <use xlink:href="#DejaVuSans-20" x="1045.019531"/>
      <use xlink:href="#DejaVuSans-43" x="1076.806641"/>
      <use xlink:href="#DejaVuSans-6f" x="1146.630859"/>
      <use xlink:href="#DejaVuSans-73" x="1207.8125"/>
      <use xlink:href="#DejaVuSans-74" x="1259.912109"/>
      <use xlink:href="#DejaVuSans-20" x="1299.121094"/>
      <use xlink:href="#DejaVuSans-28" x="1330.908203"/>
      <use xlink:href="#DejaVuSans-24" x="1369.921875"/>
      <use xlink:href="#DejaVuSans-2f" x="1433.544922"/>
      <use xlink:href="#DejaVuSans-79" x="1467.236328"/>
      <use xlink:href="#DejaVuSans-72" x="1526.416016"/>
      <use xlink:href="#DejaVuSans-29" x="1567.529297"/>
     </g>
    </g>
   </g>
   <g id="matplotlib.axis_8">
    <g id="ytick_20">
     <g id="line2d_39">
      <g>
       <use xlink:href="#mf15c99d0f8" x="737.373913" y="256.32" style="stroke: #000000; stroke-width: 0.8"/>
      </g>
     </g>
     <g id="text_44">
      <!-- 0.000 -->
      <g transform="translate(701.745788 260.119219) scale(0.1 -0.1)">
       <use xlink:href="#DejaVuSans-30"/>
       <use xlink:href="#DejaVuSans-2e" x="63.623047"/>
       <use xlink:href="#DejaVuSans-30" x="95.410156"/>
       <use xlink:href="#DejaVuSans-30" x="159.033203"/>
       <use xlink:href="#DejaVuSans-30" x="222.65625"/>
      </g>
     </g>
    </g>
    <g id="ytick_21">
     <g id="line2d_40">
      <g>
       <use xlink:href="#mf15c99d0f8" x="737.373913" y="217.195772" style="stroke: #000000; stroke-width: 0.8"/>
      </g>
     </g>
     <g id="text_45">
      <!-- 0.001 -->
      <g transform="translate(701.745788 220.994991) scale(0.1 -0.1)">
       <use xlink:href="#DejaVuSans-30"/>
       <use xlink:href="#DejaVuSans-2e" x="63.623047"/>
       <use xlink:href="#DejaVuSans-30" x="95.410156"/>
       <use xlink:href="#DejaVuSans-30" x="159.033203"/>
       <use xlink:href="#DejaVuSans-31" x="222.65625"/>
      </g>
     </g>
    </g>
    <g id="ytick_22">
     <g id="line2d_41">
      <g>
       <use xlink:href="#mf15c99d0f8" x="737.373913" y="178.071545" style="stroke: #000000; stroke-width: 0.8"/>
      </g>
     </g>
     <g id="text_46">
      <!-- 0.002 -->
      <g transform="translate(701.745788 181.870764) scale(0.1 -0.1)">
       <use xlink:href="#DejaVuSans-30"/>
       <use xlink:href="#DejaVuSans-2e" x="63.623047"/>
       <use xlink:href="#DejaVuSans-30" x="95.410156"/>
       <use xlink:href="#DejaVuSans-30" x="159.033203"/>
       <use xlink:href="#DejaVuSans-32" x="222.65625"/>
      </g>
     </g>
    </g>
    <g id="ytick_23">
     <g id="line2d_42">
      <g>
       <use xlink:href="#mf15c99d0f8" x="737.373913" y="138.947317" style="stroke: #000000; stroke-width: 0.8"/>
      </g>
     </g>
     <g id="text_47">
      <!-- 0.003 -->
      <g transform="translate(701.745788 142.746536) scale(0.1 -0.1)">
       <use xlink:href="#DejaVuSans-30"/>
       <use xlink:href="#DejaVuSans-2e" x="63.623047"/>
       <use xlink:href="#DejaVuSans-30" x="95.410156"/>
       <use xlink:href="#DejaVuSans-30" x="159.033203"/>
       <use xlink:href="#DejaVuSans-33" x="222.65625"/>
      </g>
     </g>
    </g>
    <g id="ytick_24">
     <g id="line2d_43">
      <g>
       <use xlink:href="#mf15c99d0f8" x="737.373913" y="99.82309" style="stroke: #000000; stroke-width: 0.8"/>
      </g>
     </g>
     <g id="text_48">
      <!-- 0.004 -->
      <g transform="translate(701.745788 103.622308) scale(0.1 -0.1)">
       <use xlink:href="#DejaVuSans-30"/>
       <use xlink:href="#DejaVuSans-2e" x="63.623047"/>
       <use xlink:href="#DejaVuSans-30" x="95.410156"/>
       <use xlink:href="#DejaVuSans-30" x="159.033203"/>
       <use xlink:href="#DejaVuSans-34" x="222.65625"/>
      </g>
     </g>
    </g>
    <g id="ytick_25">
     <g id="line2d_44">
      <g>
       <use xlink:href="#mf15c99d0f8" x="737.373913" y="60.698862" style="stroke: #000000; stroke-width: 0.8"/>
      </g>
     </g>
     <g id="text_49">
      <!-- 0.005 -->
      <g transform="translate(701.745788 64.498081) scale(0.1 -0.1)">
       <use xlink:href="#DejaVuSans-30"/>
       <use xlink:href="#DejaVuSans-2e" x="63.623047"/>
       <use xlink:href="#DejaVuSans-30" x="95.410156"/>
       <use xlink:href="#DejaVuSans-30" x="159.033203"/>
       <use xlink:href="#DejaVuSans-35" x="222.65625"/>
      </g>
     </g>
    </g>
   </g>
   <g id="patch_73">
    <path d="M 737.373913 256.32 
L 737.373913 34.56 
" style="fill: none; stroke: #000000; stroke-width: 0.8; stroke-linejoin: miter; stroke-linecap: square"/>
   </g>
   <g id="patch_74">
    <path d="M 907.2 256.32 
L 907.2 34.56 
" style="fill: none; stroke: #000000; stroke-width: 0.8; stroke-linejoin: miter; stroke-linecap: square"/>
   </g>
   <g id="patch_75">
    <path d="M 737.373913 256.32 
L 907.2 256.32 
" style="fill: none; stroke: #000000; stroke-width: 0.8; stroke-linejoin: miter; stroke-linecap: square"/>
   </g>
   <g id="patch_76">
    <path d="M 737.373913 34.56 
L 907.2 34.56 
" style="fill: none; stroke: #000000; stroke-width: 0.8; stroke-linejoin: miter; stroke-linecap: square"/>
   </g>
  </g>
 </g>
 <defs>
  <clipPath id="p97febd3cfb">
   <rect x="126" y="34.56" width="169.826087" height="221.76"/>
  </clipPath>
  <clipPath id="p69346a98d7">
   <rect x="329.791304" y="34.56" width="169.826087" height="221.76"/>
  </clipPath>
  <clipPath id="pccf539a5a0">
   <rect x="533.582609" y="34.56" width="169.826087" height="221.76"/>
  </clipPath>
  <clipPath id="pfc83605ec9">
   <rect x="737.373913" y="34.56" width="169.826087" height="221.76"/>
  </clipPath>
 </defs>
</svg>
